<svg width="80" height="80" viewBox="0 0 80 80" fill="none" xmlns="http://www.w3.org/2000/svg">
<g opacity="0.3" filter="url(#filter0_bii_143_2718)">
<path fill-rule="evenodd" clip-rule="evenodd" d="M73.3332 40C73.3332 58.4095 58.4093 73.3334 39.9998 73.3334C21.5903 73.3334 6.6665 58.4095 6.6665 40C6.6665 21.5905 21.5903 6.66669 39.9998 6.66669C58.4093 6.66669 73.3332 21.5905 73.3332 40ZM44.96 21.4864C46.2937 21.8437 47.0852 23.2146 46.7278 24.5482L38.1005 56.7458C37.7431 58.0794 36.3723 58.8709 35.0386 58.5135C33.705 58.1562 32.9135 56.7853 33.2709 55.4517L41.8982 23.2541C42.2555 21.9205 43.6264 21.129 44.96 21.4864ZM49.8987 28.2323C50.875 27.256 52.458 27.256 53.4343 28.2323L54.1287 28.9267C56.2465 31.0443 58.0126 32.8103 59.226 34.4007C60.5067 36.0793 61.4051 37.8529 61.4051 40C61.4051 42.1471 60.5067 43.9207 59.226 45.5994C58.0126 47.1898 56.2466 48.9556 54.1289 51.0732L53.4343 51.7678C52.458 52.7441 50.875 52.7441 49.8987 51.7678C48.9224 50.7915 48.9224 49.2086 49.8987 48.2323L50.4706 47.6604C52.7428 45.3882 54.2654 43.8581 55.2509 42.5665C56.1923 41.3326 56.4051 40.6143 56.4051 40C56.4051 39.3857 56.1923 38.6675 55.2509 37.4336C54.2654 36.142 52.7428 34.6119 50.4706 32.3397L49.8987 31.7678C48.9224 30.7915 48.9224 29.2086 49.8987 28.2323ZM26.566 28.2323C27.5423 27.256 29.1252 27.256 30.1016 28.2323C31.0779 29.2086 31.0779 30.7915 30.1016 31.7678L29.5297 32.3397C27.2575 34.6119 25.7349 36.142 24.7494 37.4336C23.808 38.6675 23.5952 39.3857 23.5952 40C23.5952 40.6143 23.808 41.3326 24.7494 42.5665C25.7349 43.8581 27.2575 45.3882 29.5297 47.6604L30.1016 48.2323C31.0779 49.2086 31.0779 50.7915 30.1016 51.7678C29.1252 52.7441 27.5423 52.7441 26.566 51.7678L25.8715 51.0733C23.7537 48.9557 21.9878 47.1898 20.7743 45.5994C19.4935 43.9207 18.5952 42.1471 18.5952 40C18.5952 37.8529 19.4935 36.0793 20.7743 34.4007C21.9878 32.8103 23.7538 31.0444 25.8715 28.9267L26.566 28.2323Z" fill="white" fill-opacity="0.01"/>
</g>
<defs>
<filter id="filter0_bii_143_2718" x="-61.7848" y="-61.7848" width="203.57" height="203.57" filterUnits="userSpaceOnUse" color-interpolation-filters="sRGB">
<feFlood flood-opacity="0" result="BackgroundImageFix"/>
<feGaussianBlur in="BackgroundImageFix" stdDeviation="30.8924"/>
<feComposite in2="SourceAlpha" operator="in" result="effect1_backgroundBlur_143_2718"/>
<feBlend mode="normal" in="SourceGraphic" in2="effect1_backgroundBlur_143_2718" result="shape"/>
<feColorMatrix in="SourceAlpha" type="matrix" values="0 0 0 0 0 0 0 0 0 0 0 0 0 0 0 0 0 0 127 0" result="hardAlpha"/>
<feOffset dy="0.617848"/>
<feGaussianBlur stdDeviation="12.357"/>
<feComposite in2="hardAlpha" operator="arithmetic" k2="-1" k3="1"/>
<feColorMatrix type="matrix" values="0 0 0 0 0.525 0 0 0 0 0.525 0 0 0 0 0.525 0 0 0 0.25 0"/>
<feBlend mode="normal" in2="shape" result="effect2_innerShadow_143_2718"/>
<feColorMatrix in="SourceAlpha" type="matrix" values="0 0 0 0 0 0 0 0 0 0 0 0 0 0 0 0 0 0 127 0" result="hardAlpha"/>
<feOffset dy="2.47139"/>
<feGaussianBlur stdDeviation="5.56063"/>
<feComposite in2="hardAlpha" operator="arithmetic" k2="-1" k3="1"/>
<feColorMatrix type="matrix" values="0 0 0 0 0.439216 0 0 0 0 0.0509804 0 0 0 0 0.788235 0 0 0 0.26 0"/>
<feBlend mode="normal" in2="effect2_innerShadow_143_2718" result="effect3_innerShadow_143_2718"/>
</filter>
</defs>
</svg>
