<svg width="179" height="41" viewBox="0 0 179 41" fill="none" xmlns="http://www.w3.org/2000/svg">
<rect width="179" height="41" rx="20.5" fill="white"/>
<path d="M19 19.6666C19 17.3096 19 16.1311 19.7322 15.3989C20.4645 14.6666 21.643 14.6666 24 14.6666H26.5C28.857 14.6666 30.0355 14.6666 30.7678 15.3989C31.5 16.1311 31.5 17.3096 31.5 19.6666V23.8333C31.5 26.1903 31.5 27.3688 30.7678 28.1011C30.0355 28.8333 28.857 28.8333 26.5 28.8333H24C21.643 28.8333 20.4645 28.8333 19.7322 28.1011C19 27.3688 19 26.1903 19 23.8333V19.6666Z" stroke="#4B4B4B"/>
<path d="M19 26.3333C17.6193 26.3333 16.5 25.214 16.5 23.8333V18.8333C16.5 15.6906 16.5 14.1192 17.4763 13.1429C18.4526 12.1666 20.024 12.1666 23.1667 12.1666H26.5C27.8807 12.1666 29 13.2859 29 14.6666" stroke="#4B4B4B"/>
<path d="M48.964 26.168C48.2267 26.168 47.5453 26.0373 46.92 25.776C46.304 25.5053 45.7627 25.1273 45.296 24.642C44.8387 24.1567 44.484 23.5873 44.232 22.934C43.98 22.2807 43.854 21.5667 43.854 20.792C43.854 20.008 43.98 19.2893 44.232 18.636C44.484 17.9827 44.8387 17.4133 45.296 16.928C45.7533 16.4427 46.2947 16.0693 46.92 15.808C47.5453 15.5373 48.2267 15.402 48.964 15.402C49.6827 15.402 50.3267 15.528 50.896 15.78C51.4747 16.032 51.96 16.3587 52.352 16.76C52.7533 17.1613 53.038 17.5907 53.206 18.048L51.946 18.622C51.7033 18.0433 51.3253 17.5767 50.812 17.222C50.2987 16.858 49.6827 16.676 48.964 16.676C48.236 16.676 47.5873 16.8487 47.018 17.194C46.458 17.5393 46.0193 18.02 45.702 18.636C45.3847 19.252 45.226 19.9707 45.226 20.792C45.226 21.604 45.3847 22.318 45.702 22.934C46.0193 23.55 46.458 24.0307 47.018 24.376C47.5873 24.7213 48.236 24.894 48.964 24.894C49.6827 24.894 50.2987 24.7167 50.812 24.362C51.3253 23.998 51.7033 23.5267 51.946 22.948L53.206 23.522C53.038 23.9793 52.7533 24.4087 52.352 24.81C51.96 25.2113 51.4747 25.538 50.896 25.79C50.3267 26.042 49.6827 26.168 48.964 26.168ZM58.3654 26.168C57.6374 26.168 56.9794 26 56.3914 25.664C55.8034 25.3187 55.3368 24.8473 54.9914 24.25C54.6461 23.6527 54.4734 22.976 54.4734 22.22C54.4734 21.464 54.6414 20.792 54.9774 20.204C55.3228 19.616 55.7894 19.1493 56.3774 18.804C56.9654 18.4587 57.6281 18.286 58.3654 18.286C59.0934 18.286 59.7514 18.4587 60.3394 18.804C60.9274 19.14 61.3894 19.602 61.7254 20.19C62.0708 20.778 62.2434 21.4547 62.2434 22.22C62.2434 22.9853 62.0661 23.6667 61.7114 24.264C61.3568 24.852 60.8854 25.3187 60.2974 25.664C59.7188 26 59.0748 26.168 58.3654 26.168ZM58.3654 24.908C58.8321 24.908 59.2521 24.7913 59.6254 24.558C60.0081 24.3247 60.3068 24.0027 60.5214 23.592C60.7454 23.1813 60.8574 22.724 60.8574 22.22C60.8574 21.7067 60.7454 21.254 60.5214 20.862C60.3068 20.4607 60.0081 20.1433 59.6254 19.91C59.2521 19.6673 58.8321 19.546 58.3654 19.546C57.8894 19.546 57.4601 19.6673 57.0774 19.91C56.7041 20.1433 56.4054 20.4607 56.1814 20.862C55.9574 21.254 55.8454 21.7067 55.8454 22.22C55.8454 22.724 55.9574 23.1813 56.1814 23.592C56.4054 24.0027 56.7041 24.3247 57.0774 24.558C57.4601 24.7913 57.8894 24.908 58.3654 24.908ZM63.9416 28.8V18.454H65.2156V20.078L65.0476 19.756C65.3276 19.308 65.7103 18.9533 66.1956 18.692C66.6809 18.4213 67.2363 18.286 67.8616 18.286C68.5709 18.286 69.2056 18.4587 69.7656 18.804C70.3349 19.1493 70.7829 19.6207 71.1096 20.218C71.4363 20.806 71.5996 21.478 71.5996 22.234C71.5996 22.9713 71.4363 23.6387 71.1096 24.236C70.7829 24.8333 70.3349 25.3047 69.7656 25.65C69.2056 25.9953 68.5663 26.168 67.8476 26.168C67.2409 26.168 66.6856 26.0327 66.1816 25.762C65.6869 25.4913 65.3043 25.1087 65.0336 24.614L65.2436 24.39V28.8H63.9416ZM67.7496 24.908C68.2256 24.908 68.6503 24.7913 69.0236 24.558C69.3969 24.3247 69.6863 24.0073 69.8916 23.606C70.1063 23.1953 70.2136 22.738 70.2136 22.234C70.2136 21.7113 70.1063 21.254 69.8916 20.862C69.6863 20.4607 69.3969 20.1433 69.0236 19.91C68.6503 19.6673 68.2256 19.546 67.7496 19.546C67.2736 19.546 66.8443 19.6627 66.4616 19.896C66.0883 20.1293 65.7896 20.4513 65.5656 20.862C65.3509 21.2633 65.2436 21.7207 65.2436 22.234C65.2436 22.738 65.3509 23.1953 65.5656 23.606C65.7896 24.0073 66.0883 24.3247 66.4616 24.558C66.8443 24.7913 67.2736 24.908 67.7496 24.908ZM73.5761 29.08C73.4081 29.08 73.2401 29.066 73.0721 29.038C72.9041 29.0193 72.7454 28.9773 72.5961 28.912V27.75C72.6988 27.7593 72.8248 27.778 72.9741 27.806C73.1328 27.834 73.2868 27.848 73.4361 27.848C73.8748 27.848 74.2061 27.75 74.4301 27.554C74.6634 27.358 74.8828 27.0267 75.0881 26.56L75.5641 25.426L75.5361 26.56L72.3161 18.454H73.7301L76.2361 24.894H75.8161L78.3081 18.454H79.7501L76.3481 26.896C76.1894 27.2973 75.9841 27.666 75.7321 28.002C75.4894 28.338 75.1908 28.5993 74.8361 28.786C74.4814 28.982 74.0614 29.08 73.5761 29.08ZM86.3943 26.084C85.657 26.084 85.0876 25.874 84.6863 25.454C84.2943 25.034 84.0983 24.4413 84.0983 23.676V19.7H82.7263V18.454H83.0063C83.3423 18.454 83.6083 18.3513 83.8043 18.146C84.0003 17.9407 84.0983 17.67 84.0983 17.334V16.718H85.4003V18.454H87.0943V19.7H85.4003V23.634C85.4003 23.886 85.4376 24.1053 85.5123 24.292C85.5963 24.4787 85.7316 24.628 85.9183 24.74C86.105 24.8427 86.3523 24.894 86.6603 24.894C86.7256 24.894 86.805 24.8893 86.8983 24.88C87.001 24.8707 87.0943 24.8613 87.1783 24.852V26C87.057 26.028 86.9216 26.0467 86.7723 26.056C86.623 26.0747 86.497 26.084 86.3943 26.084ZM92.258 26.168C91.53 26.168 90.872 26 90.284 25.664C89.696 25.3187 89.2293 24.8473 88.884 24.25C88.5387 23.6527 88.366 22.976 88.366 22.22C88.366 21.464 88.534 20.792 88.87 20.204C89.2153 19.616 89.682 19.1493 90.27 18.804C90.858 18.4587 91.5207 18.286 92.258 18.286C92.986 18.286 93.644 18.4587 94.232 18.804C94.82 19.14 95.282 19.602 95.618 20.19C95.9633 20.778 96.136 21.4547 96.136 22.22C96.136 22.9853 95.9587 23.6667 95.604 24.264C95.2493 24.852 94.778 25.3187 94.19 25.664C93.6113 26 92.9673 26.168 92.258 26.168ZM92.258 24.908C92.7247 24.908 93.1447 24.7913 93.518 24.558C93.9007 24.3247 94.1993 24.0027 94.414 23.592C94.638 23.1813 94.75 22.724 94.75 22.22C94.75 21.7067 94.638 21.254 94.414 20.862C94.1993 20.4607 93.9007 20.1433 93.518 19.91C93.1447 19.6673 92.7247 19.546 92.258 19.546C91.782 19.546 91.3527 19.6673 90.97 19.91C90.5967 20.1433 90.298 20.4607 90.074 20.862C89.85 21.254 89.738 21.7067 89.738 22.22C89.738 22.724 89.85 23.1813 90.074 23.592C90.298 24.0027 90.5967 24.3247 90.97 24.558C91.3527 24.7913 91.782 24.908 92.258 24.908ZM103.754 26.168C103.017 26.168 102.359 25.9953 101.78 25.65C101.211 25.3047 100.763 24.8333 100.436 24.236C100.109 23.6387 99.9461 22.9667 99.9461 22.22C99.9461 21.464 100.109 20.792 100.436 20.204C100.763 19.616 101.211 19.1493 101.78 18.804C102.359 18.4587 103.017 18.286 103.754 18.286C104.249 18.286 104.711 18.3747 105.14 18.552C105.569 18.7293 105.947 18.9673 106.274 19.266C106.601 19.5647 106.839 19.9147 106.988 20.316L105.826 20.876C105.649 20.484 105.378 20.1667 105.014 19.924C104.65 19.672 104.23 19.546 103.754 19.546C103.297 19.546 102.881 19.6627 102.508 19.896C102.144 20.1293 101.855 20.4467 101.64 20.848C101.425 21.2493 101.318 21.7113 101.318 22.234C101.318 22.738 101.425 23.1953 101.64 23.606C101.855 24.0073 102.144 24.3247 102.508 24.558C102.881 24.7913 103.297 24.908 103.754 24.908C104.23 24.908 104.65 24.7867 105.014 24.544C105.378 24.292 105.649 23.9607 105.826 23.55L106.988 24.138C106.839 24.53 106.601 24.88 106.274 25.188C105.947 25.4867 105.569 25.7247 105.14 25.902C104.711 26.0793 104.249 26.168 103.754 26.168ZM108.69 26V15.402H109.992V26H108.69ZM112.012 26V18.454H113.314V26H112.012ZM112.012 17.25V15.57H113.314V17.25H112.012ZM115.334 28.8V18.454H116.608V20.078L116.44 19.756C116.72 19.308 117.103 18.9533 117.588 18.692C118.074 18.4213 118.629 18.286 119.254 18.286C119.964 18.286 120.598 18.4587 121.158 18.804C121.728 19.1493 122.176 19.6207 122.502 20.218C122.829 20.806 122.992 21.478 122.992 22.234C122.992 22.9713 122.829 23.6387 122.502 24.236C122.176 24.8333 121.728 25.3047 121.158 25.65C120.598 25.9953 119.959 26.168 119.24 26.168C118.634 26.168 118.078 26.0327 117.574 25.762C117.08 25.4913 116.697 25.1087 116.426 24.614L116.636 24.39V28.8H115.334ZM119.142 24.908C119.618 24.908 120.043 24.7913 120.416 24.558C120.79 24.3247 121.079 24.0073 121.284 23.606C121.499 23.1953 121.606 22.738 121.606 22.234C121.606 21.7113 121.499 21.254 121.284 20.862C121.079 20.4607 120.79 20.1433 120.416 19.91C120.043 19.6673 119.618 19.546 119.142 19.546C118.666 19.546 118.237 19.6627 117.854 19.896C117.481 20.1293 117.182 20.4513 116.958 20.862C116.744 21.2633 116.636 21.7207 116.636 22.234C116.636 22.738 116.744 23.1953 116.958 23.606C117.182 24.0073 117.481 24.3247 117.854 24.558C118.237 24.7913 118.666 24.908 119.142 24.908ZM128.605 26.168C127.999 26.168 127.443 26.0327 126.939 25.762C126.445 25.4913 126.062 25.1087 125.791 24.614L125.973 24.39V26H124.699V15.402H126.001V20.078L125.805 19.756C126.085 19.308 126.468 18.9533 126.953 18.692C127.439 18.4213 127.994 18.286 128.619 18.286C129.329 18.286 129.963 18.4587 130.523 18.804C131.093 19.1493 131.541 19.6207 131.867 20.218C132.194 20.806 132.357 21.478 132.357 22.234C132.357 22.9713 132.194 23.6387 131.867 24.236C131.541 24.8333 131.093 25.3047 130.523 25.65C129.963 25.9953 129.324 26.168 128.605 26.168ZM128.507 24.908C128.983 24.908 129.408 24.7913 129.781 24.558C130.155 24.3247 130.444 24.0073 130.649 23.606C130.864 23.1953 130.971 22.738 130.971 22.234C130.971 21.7113 130.864 21.254 130.649 20.862C130.444 20.4607 130.155 20.1433 129.781 19.91C129.408 19.6673 128.983 19.546 128.507 19.546C128.031 19.546 127.602 19.6627 127.219 19.896C126.846 20.1293 126.547 20.4513 126.323 20.862C126.109 21.2633 126.001 21.7207 126.001 22.234C126.001 22.738 126.109 23.1953 126.323 23.606C126.547 24.0073 126.846 24.3247 127.219 24.558C127.602 24.7913 128.031 24.908 128.507 24.908ZM137.649 26.168C136.921 26.168 136.263 26 135.675 25.664C135.087 25.3187 134.62 24.8473 134.275 24.25C133.929 23.6527 133.757 22.976 133.757 22.22C133.757 21.464 133.925 20.792 134.261 20.204C134.606 19.616 135.073 19.1493 135.661 18.804C136.249 18.4587 136.911 18.286 137.649 18.286C138.377 18.286 139.035 18.4587 139.623 18.804C140.211 19.14 140.673 19.602 141.009 20.19C141.354 20.778 141.527 21.4547 141.527 22.22C141.527 22.9853 141.349 23.6667 140.995 24.264C140.64 24.852 140.169 25.3187 139.581 25.664C139.002 26 138.358 26.168 137.649 26.168ZM137.649 24.908C138.115 24.908 138.535 24.7913 138.909 24.558C139.291 24.3247 139.59 24.0027 139.805 23.592C140.029 23.1813 140.141 22.724 140.141 22.22C140.141 21.7067 140.029 21.254 139.805 20.862C139.59 20.4607 139.291 20.1433 138.909 19.91C138.535 19.6673 138.115 19.546 137.649 19.546C137.173 19.546 136.743 19.6673 136.361 19.91C135.987 20.1433 135.689 20.4607 135.465 20.862C135.241 21.254 135.129 21.7067 135.129 22.22C135.129 22.724 135.241 23.1813 135.465 23.592C135.689 24.0027 135.987 24.3247 136.361 24.558C136.743 24.7913 137.173 24.908 137.649 24.908ZM145.437 26.168C144.942 26.168 144.503 26.0793 144.121 25.902C143.747 25.7153 143.453 25.4633 143.239 25.146C143.024 24.8193 142.917 24.446 142.917 24.026C142.917 23.6247 143.001 23.2653 143.169 22.948C143.346 22.6213 143.617 22.346 143.981 22.122C144.354 21.898 144.821 21.7393 145.381 21.646L148.181 21.184V22.276L145.675 22.696C145.189 22.78 144.835 22.934 144.611 23.158C144.396 23.382 144.289 23.6573 144.289 23.984C144.289 24.292 144.41 24.5487 144.653 24.754C144.905 24.9593 145.217 25.062 145.591 25.062C146.067 25.062 146.477 24.964 146.823 24.768C147.177 24.5627 147.453 24.2873 147.649 23.942C147.854 23.5967 147.957 23.214 147.957 22.794V20.876C147.957 20.4653 147.803 20.134 147.495 19.882C147.196 19.6207 146.799 19.49 146.305 19.49C145.875 19.49 145.493 19.602 145.157 19.826C144.83 20.0407 144.587 20.33 144.429 20.694L143.295 20.106C143.435 19.7607 143.659 19.4527 143.967 19.182C144.275 18.902 144.634 18.6827 145.045 18.524C145.455 18.3653 145.885 18.286 146.333 18.286C146.911 18.286 147.42 18.398 147.859 18.622C148.297 18.8367 148.638 19.14 148.881 19.532C149.133 19.9147 149.259 20.3627 149.259 20.876V26H147.985V24.572L148.223 24.656C148.064 24.9547 147.849 25.216 147.579 25.44C147.308 25.664 146.991 25.8413 146.627 25.972C146.263 26.1027 145.866 26.168 145.437 26.168ZM151.278 26V18.454H152.552V19.84L152.412 19.644C152.589 19.2147 152.86 18.8973 153.224 18.692C153.588 18.4773 154.031 18.37 154.554 18.37H155.016V19.602H154.358C153.826 19.602 153.396 19.77 153.07 20.106C152.743 20.4327 152.58 20.8993 152.58 21.506V26H151.278ZM159.602 26.168C158.893 26.168 158.253 25.9953 157.684 25.65C157.124 25.3047 156.681 24.8333 156.354 24.236C156.027 23.6387 155.864 22.9713 155.864 22.234C155.864 21.478 156.027 20.806 156.354 20.218C156.681 19.6207 157.124 19.1493 157.684 18.804C158.253 18.4587 158.893 18.286 159.602 18.286C160.227 18.286 160.783 18.4213 161.268 18.692C161.753 18.9533 162.136 19.308 162.416 19.756L162.206 20.078V15.402H163.522V26H162.248V24.39L162.416 24.614C162.155 25.1087 161.772 25.4913 161.268 25.762C160.773 26.0327 160.218 26.168 159.602 26.168ZM159.714 24.908C160.19 24.908 160.615 24.7913 160.988 24.558C161.361 24.3247 161.655 24.0073 161.87 23.606C162.094 23.1953 162.206 22.738 162.206 22.234C162.206 21.7207 162.094 21.2633 161.87 20.862C161.655 20.4513 161.361 20.1293 160.988 19.896C160.615 19.6627 160.19 19.546 159.714 19.546C159.247 19.546 158.823 19.6673 158.44 19.91C158.067 20.1433 157.773 20.4607 157.558 20.862C157.343 21.254 157.236 21.7113 157.236 22.234C157.236 22.738 157.343 23.1953 157.558 23.606C157.773 24.0073 158.067 24.3247 158.44 24.558C158.813 24.7913 159.238 24.908 159.714 24.908Z" fill="#4B4B4B"/>
</svg>
