<svg width="24" height="25" viewBox="0 0 24 25" fill="none" xmlns="http://www.w3.org/2000/svg">
<path d="M12 9.47656C11.2044 9.47656 10.4413 9.79263 9.87868 10.3552C9.31607 10.9179 9 11.6809 9 12.4766C9 13.2722 9.31607 14.0353 9.87868 14.5979C10.4413 15.1605 11.2044 15.4766 12 15.4766C12.7956 15.4766 13.5587 15.1605 14.1213 14.5979C14.6839 14.0353 15 13.2722 15 12.4766C15 11.6809 14.6839 10.9179 14.1213 10.3552C13.5587 9.79263 12.7956 9.47656 12 9.47656ZM12 17.4766C10.6739 17.4766 9.40215 16.9498 8.46447 16.0121C7.52678 15.0744 7 13.8026 7 12.4766C7 11.1505 7.52678 9.87871 8.46447 8.94103C9.40215 8.00335 10.6739 7.47656 12 7.47656C13.3261 7.47656 14.5979 8.00335 15.5355 8.94103C16.4732 9.87871 17 11.1505 17 12.4766C17 13.8026 16.4732 15.0744 15.5355 16.0121C14.5979 16.9498 13.3261 17.4766 12 17.4766ZM12 4.97656C7 4.97656 2.73 8.08656 1 12.4766C2.73 16.8666 7 19.9766 12 19.9766C17 19.9766 21.27 16.8666 23 12.4766C21.27 8.08656 17 4.97656 12 4.97656Z" fill="white"/>
</svg>
