<svg width="192" height="171" viewBox="0 0 192 171" fill="none" xmlns="http://www.w3.org/2000/svg">
<path d="M119.475 165.102L180.128 142.345L180.565 137.495L120.359 160.247L119.475 165.102Z" fill="#100027" stroke="#2E353A" stroke-width="1.13593" stroke-linecap="round" stroke-linejoin="round"/>
<path d="M109.263 84.6562C108.197 84.648 107.167 84.2722 106.346 83.5922C105.315 82.7417 104.638 81.5377 104.446 80.215C104.422 79.9787 104.49 79.7422 104.635 79.5544C104.781 79.3666 104.993 79.2419 105.228 79.2059C105.462 79.1699 105.702 79.2255 105.897 79.3611C106.092 79.4968 106.227 79.7021 106.275 79.9347C106.399 80.8023 106.841 81.5928 107.515 82.153C107.808 82.4058 108.153 82.5919 108.525 82.6986C108.897 82.8052 109.288 82.8298 109.67 82.7706C110.053 82.7115 110.418 82.5699 110.74 82.3559C111.063 82.1418 111.335 81.8603 111.538 81.5307C111.678 81.3368 111.888 81.2045 112.123 81.1615C112.358 81.1185 112.601 81.1682 112.8 81.3001C113 81.4321 113.14 81.6361 113.193 81.8694C113.245 82.1027 113.206 82.3473 113.082 82.552C112.735 83.0957 112.277 83.5595 111.737 83.9124C111.197 84.2654 110.589 84.4995 109.952 84.5992C109.724 84.6373 109.494 84.6563 109.263 84.6562Z" fill="#2E353A"/>
<path d="M100.508 87.3589C98.1665 87.3589 96.0718 85.4969 95.6775 82.9224C95.6586 82.8026 95.6635 82.6802 95.692 82.5624C95.7204 82.4445 95.7719 82.3334 95.8434 82.2354C95.9149 82.1374 96.005 82.0545 96.1086 81.9915C96.2122 81.9284 96.3272 81.8864 96.447 81.8679C96.6893 81.836 96.9345 81.8986 97.1318 82.0428C97.3291 82.187 97.4632 82.4016 97.5063 82.6421C97.7818 84.4519 99.3065 85.7249 100.898 85.4921C101.28 85.4299 101.644 85.2871 101.967 85.0734C102.289 84.8597 102.563 84.5798 102.769 84.2524C102.909 84.0584 103.119 83.9261 103.354 83.8832C103.589 83.8402 103.832 83.8899 104.031 84.0218C104.231 84.1538 104.372 84.3577 104.424 84.5911C104.477 84.8244 104.437 85.069 104.313 85.2736C103.966 85.8174 103.508 86.2811 102.968 86.6341C102.428 86.9871 101.82 87.2212 101.183 87.3209C100.959 87.352 100.734 87.3647 100.508 87.3589Z" fill="#2E353A"/>
<path d="M92.4999 90.432C91.4349 90.4247 90.4049 90.0506 89.5834 89.3727C88.5534 88.5213 87.8763 87.3178 87.6834 85.9955C87.6595 85.7592 87.7272 85.5227 87.8726 85.3349C88.0179 85.1471 88.2299 85.0224 88.4647 84.9864C88.6994 84.9504 88.939 85.006 89.134 85.1416C89.3289 85.2773 89.4643 85.4826 89.5122 85.7152C89.6361 86.5828 90.0779 87.3733 90.7519 87.9335C91.0481 88.1816 91.3931 88.3648 91.7646 88.4712C92.1361 88.5776 92.5258 88.6047 92.9084 88.551C93.2897 88.4887 93.6534 88.3459 93.9753 88.1321C94.2972 87.9184 94.5698 87.6385 94.7752 87.3112C94.9305 87.1608 95.1324 87.0678 95.3477 87.0477C95.563 87.0275 95.7787 87.0814 95.9592 87.2005C96.1397 87.3195 96.2742 87.4966 96.3405 87.7024C96.4067 87.9082 96.4008 88.1305 96.3236 88.3325C95.9755 88.8759 95.5161 89.3394 94.9757 89.6923C94.4353 90.0452 93.8263 90.2795 93.1887 90.3797C92.9609 90.4162 92.7306 90.4337 92.4999 90.432Z" fill="#2E353A"/>
<path d="M83.7456 92.9401C81.4039 92.9401 79.3092 91.0734 78.9149 88.5037C78.8904 88.3811 78.891 88.2549 78.9166 88.1326C78.9422 88.0103 78.9922 87.8944 79.0638 87.792C79.1353 87.6895 79.2268 87.6026 79.3328 87.5365C79.4388 87.4703 79.5571 87.4263 79.6806 87.407C79.804 87.3878 79.9301 87.3937 80.0512 87.4245C80.1723 87.4553 80.286 87.5102 80.3853 87.586C80.4846 87.6619 80.5676 87.757 80.6291 87.8657C80.6907 87.9744 80.7297 88.0945 80.7436 88.2187C81.0239 90.0284 82.5439 91.3014 84.1351 91.0686C84.5165 91.0064 84.8804 90.8641 85.2029 90.6513C85.5255 90.4385 85.7994 90.1598 86.0066 89.8336C86.0691 89.7233 86.1537 89.6269 86.255 89.5506C86.3563 89.4742 86.4722 89.4195 86.5955 89.3898C86.7188 89.36 86.8469 89.3559 86.9719 89.3778C87.0968 89.3996 87.216 89.4468 87.3219 89.5166C87.4279 89.5864 87.5183 89.6771 87.5878 89.7833C87.6572 89.8895 87.704 90.0088 87.7255 90.1338C87.7469 90.2588 87.7424 90.3869 87.7123 90.5101C87.6822 90.6334 87.627 90.7491 87.5504 90.8501C87.203 91.3938 86.7445 91.8577 86.205 92.2113C85.6655 92.565 85.0572 92.8004 84.4201 92.9021C84.1965 92.9311 83.9711 92.9438 83.7456 92.9401Z" fill="#2E353A"/>
<path d="M74.7826 96.5025C72.4456 96.5025 70.3509 94.6405 69.9519 92.0661C69.9664 91.8504 70.0539 91.6461 70.2002 91.4869C70.3464 91.3277 70.5426 91.2231 70.7562 91.1905C70.9699 91.1578 71.1883 91.199 71.3755 91.3072C71.5626 91.4155 71.7072 91.5843 71.7854 91.7858C72.0609 93.5956 73.5856 94.8638 75.1769 94.6358C75.5586 94.5727 75.9226 94.4296 76.2451 94.2159C76.5676 94.0023 76.8414 93.7229 77.0484 93.396C77.1883 93.2021 77.3978 93.0698 77.6331 93.0268C77.8683 92.9839 78.1111 93.0335 78.3106 93.1655C78.51 93.2974 78.6507 93.5014 78.7032 93.7347C78.7557 93.9681 78.7159 94.2126 78.5921 94.4173C78.2447 94.9604 77.7861 95.4237 77.2465 95.7766C76.707 96.1295 76.0987 96.364 75.4619 96.4645C75.2367 96.4934 75.0097 96.5061 74.7826 96.5025Z" fill="#2E353A"/>
<path d="M66.1042 99.6801C65.039 99.6737 64.0087 99.2995 63.1877 98.6209C62.1577 97.7695 61.4806 96.566 61.2877 95.2436C61.2637 95.0074 61.3314 94.7709 61.4768 94.5831C61.6222 94.3953 61.8341 94.2705 62.0689 94.2346C62.3037 94.1986 62.5433 94.2542 62.7382 94.3898C62.9332 94.5254 63.0686 94.7308 63.1164 94.9634C63.2403 95.831 63.6822 96.6215 64.3562 97.1816C64.6493 97.4344 64.9938 97.6206 65.366 97.7272C65.7381 97.8339 66.1289 97.8585 66.5114 97.7993C66.894 97.7401 67.2591 97.5986 67.5816 97.3846C67.9041 97.1705 68.1763 96.8889 68.3794 96.5594C68.5347 96.4089 68.7367 96.316 68.952 96.2958C69.1672 96.2757 69.3829 96.3296 69.5634 96.4487C69.7439 96.5677 69.8784 96.7447 69.9447 96.9506C70.011 97.1564 70.005 97.3786 69.9279 97.5806C69.5798 98.1241 69.1204 98.5876 68.58 98.9405C68.0396 99.2934 67.4305 99.5276 66.7929 99.6279C66.5652 99.6644 66.3348 99.6819 66.1042 99.6801Z" fill="#2E353A"/>
<path d="M121.137 162.142L171.33 143.651" stroke="#2E353A" stroke-width="0.567964" stroke-linecap="round" stroke-linejoin="round"/>
<path d="M119.817 163.686L151.955 151.797" stroke="#2E353A" stroke-width="0.567964" stroke-linecap="round" stroke-linejoin="round"/>
<path d="M59.0413 97.5476V103.281L119.475 165.102L120.359 160.247L59.0413 97.5476Z" fill="#100027" stroke="#2E353A" stroke-width="1.13593" stroke-linecap="round" stroke-linejoin="round"/>
<path d="M59.9387 102.046L95.8247 137.927" stroke="#2E353A" stroke-width="0.567964" stroke-linecap="round" stroke-linejoin="round"/>
<path d="M76.8916 117.455L114.312 155.759" stroke="#2E353A" stroke-width="0.567964" stroke-linecap="round" stroke-linejoin="round"/>
<path d="M59.0413 97.5475L120.359 160.247L180.565 137.495L118.164 77.6926L59.0413 97.5475Z" fill="white" stroke="#2E353A" stroke-width="1.13593" stroke-linecap="round" stroke-linejoin="round"/>
<path d="M58.2907 96.5597L1.5 43.5548L59.6729 25.4147L117.718 76.7476L58.2907 96.5597Z" fill="#100027" stroke="#2E353A" stroke-width="1.13593" stroke-linecap="round" stroke-linejoin="round"/>
<path d="M10.1926 43.9062L26.8175 38.7288" stroke="#2E353A" stroke-width="1.21052" stroke-linecap="round" stroke-linejoin="round"/>
<path d="M12.6482 45.8155L29.2731 40.6381" stroke="#2E353A" stroke-width="1.21052" stroke-linecap="round" stroke-linejoin="round"/>
<path d="M69.1494 97.9943C68.9686 97.9954 68.7916 97.9425 68.6411 97.8423C68.4407 97.7035 68.3013 97.4929 68.2518 97.2542C68.2023 97.0155 68.2464 96.7669 68.3751 96.5598C68.8497 95.8228 69.0326 94.9354 68.8881 94.0708C68.8075 93.4155 68.5337 92.799 68.1014 92.2999C67.6691 91.8008 67.098 91.4417 66.4609 91.2683C66.2309 91.2054 66.034 91.0561 65.9113 90.8516C65.7886 90.6471 65.7495 90.4031 65.8021 90.1705C65.8548 89.9379 65.9951 89.7346 66.1939 89.6029C66.3927 89.4711 66.6347 89.4212 66.8694 89.4633C67.8691 89.7195 68.7697 90.2682 69.456 91.039C70.1422 91.8099 70.5829 92.7679 70.7216 93.7906C70.9387 95.1124 70.6541 96.4677 69.9236 97.5906C69.8363 97.7149 69.7204 97.8164 69.5856 97.8866C69.4509 97.9569 69.3013 97.9938 69.1494 97.9943Z" fill="#2E353A"/>
<path d="M77.8175 94.8166C77.6367 94.8177 77.4597 94.7648 77.3093 94.6646C77.2075 94.5979 77.1199 94.5117 77.0516 94.411C76.9833 94.3103 76.9357 94.1971 76.9114 94.0778C76.8871 93.9586 76.8867 93.8357 76.9101 93.7163C76.9336 93.5969 76.9804 93.4833 77.048 93.3821C77.5204 92.6442 77.7032 91.7577 77.561 90.8931C77.4804 90.2378 77.2065 89.6213 76.7742 89.1222C76.342 88.6231 75.7709 88.264 75.1338 88.0907C75.0095 88.0701 74.8907 88.0243 74.7847 87.9563C74.6786 87.8882 74.5876 87.7992 74.5172 87.6947C74.4467 87.5903 74.3983 87.4725 74.375 87.3487C74.3516 87.2249 74.3537 87.0976 74.3812 86.9747C74.4087 86.8517 74.461 86.7357 74.5349 86.6336C74.6088 86.5316 74.7028 86.4457 74.811 86.3812C74.9192 86.3167 75.0395 86.2749 75.1644 86.2585C75.2893 86.2421 75.4163 86.2513 75.5375 86.2857C76.5373 86.5419 77.4378 87.0905 78.1241 87.8613C78.8103 88.6322 79.251 89.5902 79.3897 90.6129C79.6068 91.9347 79.3222 93.29 78.5917 94.4129C78.5044 94.5372 78.3885 94.6387 78.2538 94.709C78.119 94.7792 77.9694 94.8161 77.8175 94.8166Z" fill="#2E353A"/>
<path d="M112.307 82.9701C112.145 82.9619 111.987 82.9121 111.849 82.8254C111.711 82.7386 111.598 82.6179 111.52 82.4749C111.443 82.3318 111.403 82.1711 111.405 82.0083C111.407 81.8455 111.451 81.686 111.533 81.5451C112.008 80.8101 112.191 79.924 112.046 79.0609C111.966 78.4047 111.693 77.7872 111.26 77.2871C110.828 76.7871 110.257 76.4273 109.619 76.2537C109.5 76.2278 109.388 76.1788 109.288 76.1092C109.189 76.0397 109.104 75.9511 109.039 75.8486C108.974 75.7461 108.93 75.6317 108.91 75.512C108.89 75.3924 108.893 75.2699 108.92 75.1517C108.979 74.9147 109.127 74.7095 109.333 74.5786C109.539 74.4477 109.788 74.4012 110.027 74.4487C111.027 74.7049 111.928 75.2535 112.614 76.0243C113.3 76.7952 113.741 77.7532 113.879 78.7759C114.097 80.0984 113.811 81.4544 113.077 82.5759C112.991 82.6998 112.876 82.8006 112.741 82.8694C112.607 82.9382 112.458 82.9728 112.307 82.9701Z" fill="#2E353A"/>
<path d="M103.539 85.6633C103.358 85.6644 103.181 85.6115 103.031 85.5113C102.929 85.4446 102.841 85.3584 102.773 85.2577C102.705 85.157 102.657 85.0437 102.633 84.9245C102.609 84.8052 102.608 84.6824 102.632 84.563C102.655 84.4436 102.702 84.33 102.769 84.2288C103.242 83.4911 103.425 82.6044 103.282 81.7398C103.202 81.0845 102.928 80.468 102.496 79.9689C102.063 79.4698 101.492 79.1107 100.855 78.9373C100.731 78.9167 100.612 78.871 100.506 78.8029C100.4 78.7348 100.309 78.6459 100.239 78.5414C100.168 78.4369 100.12 78.3192 100.096 78.1954C100.073 78.0716 100.075 77.9443 100.103 77.8213C100.13 77.6984 100.182 77.5823 100.256 77.4803C100.33 77.3782 100.424 77.2923 100.532 77.2278C100.641 77.1634 100.761 77.1216 100.886 77.1052C101.011 77.0888 101.138 77.098 101.259 77.1323C102.259 77.3874 103.161 77.9356 103.847 78.7067C104.533 79.4778 104.974 80.4364 105.111 81.4596C105.328 82.7814 105.044 84.1367 104.313 85.2595C104.226 85.3838 104.11 85.4854 103.975 85.5556C103.84 85.6259 103.691 85.6628 103.539 85.6633Z" fill="#2E353A"/>
<path d="M95.5304 88.7503C95.3492 88.7497 95.1722 88.6952 95.0221 88.5936C94.8217 88.4548 94.6823 88.2442 94.6328 88.0055C94.5833 87.7668 94.6274 87.5181 94.7561 87.3111C95.2332 86.5751 95.4179 85.6873 95.2739 84.8221C95.1933 84.1668 94.9194 83.5502 94.4871 83.0511C94.0549 82.552 93.4838 82.193 92.8467 82.0196C92.7224 81.999 92.6036 81.9533 92.4975 81.8852C92.3915 81.8171 92.3005 81.7281 92.2301 81.6237C92.1596 81.5192 92.1112 81.4015 92.0879 81.2777C92.0645 81.1539 92.0666 81.0266 92.0941 80.9036C92.1216 80.7807 92.1739 80.6646 92.2478 80.5626C92.3217 80.4605 92.4156 80.3746 92.5239 80.3101C92.6321 80.2456 92.7524 80.2039 92.8773 80.1875C93.0022 80.171 93.1292 80.1803 93.2504 80.2146C94.2501 80.4708 95.1507 81.0194 95.837 81.7903C96.5232 82.5611 96.9639 83.5192 97.1026 84.5418C97.3197 85.8637 97.0351 87.219 96.3046 88.3418C96.2178 88.467 96.1021 88.5695 95.9674 88.6406C95.8326 88.7117 95.6827 88.7493 95.5304 88.7503Z" fill="#2E353A"/>
<path d="M86.7765 91.254C86.596 91.2526 86.4198 91.1999 86.2682 91.102C86.1664 91.0353 86.0789 90.9491 86.0106 90.8484C85.9423 90.7477 85.8946 90.6344 85.8703 90.5152C85.8461 90.396 85.8456 90.2731 85.8691 90.1537C85.8925 90.0343 85.9394 89.9207 86.007 89.8195C86.4794 89.0816 86.6621 88.1951 86.52 87.3305C86.4394 86.6752 86.1655 86.0587 85.7332 85.5596C85.3009 85.0605 84.7298 84.7014 84.0927 84.528C83.9504 84.5281 83.8098 84.4962 83.6815 84.4346C83.5531 84.373 83.4402 84.2834 83.3512 84.1723C83.2621 84.0613 83.1992 83.9316 83.167 83.7929C83.1348 83.6543 83.1341 83.5101 83.1651 83.3712C83.1961 83.2323 83.258 83.102 83.346 82.9902C83.4341 82.8784 83.5462 82.7878 83.674 82.7251C83.8019 82.6624 83.9421 82.6293 84.0845 82.6281C84.2268 82.6269 84.3676 82.6577 84.4965 82.7183C85.4971 82.9728 86.3987 83.5208 87.0852 84.292C87.7717 85.0632 88.2118 86.0222 88.3487 87.0455C88.5662 88.3674 88.2816 89.7228 87.5507 90.8455C87.4639 90.9707 87.3482 91.0731 87.2134 91.1442C87.0787 91.2153 86.9288 91.253 86.7765 91.254Z" fill="#2E353A"/>
<path d="M168.974 136.046L171.311 135.186" stroke="#2E353A" stroke-width="0.567964" stroke-linecap="round" stroke-linejoin="round"/>
<path d="M122.838 153.089L166.851 136.834" stroke="#2E353A" stroke-width="0.567964" stroke-linecap="round" stroke-linejoin="round"/>
<path d="M124.073 145.741L166.077 130.227" stroke="#2E353A" stroke-width="0.567964" stroke-linecap="round" stroke-linejoin="round"/>
<path d="M117.603 148.13L121.28 146.771" stroke="#2E353A" stroke-width="0.567964" stroke-linecap="round" stroke-linejoin="round"/>
<path d="M112.369 143.171L160.847 125.269" stroke="#2E353A" stroke-width="0.567964" stroke-linecap="round" stroke-linejoin="round"/>
<path d="M107.139 138.217L155.613 120.314" stroke="#2E353A" stroke-width="0.567964" stroke-linecap="round" stroke-linejoin="round"/>
<path d="M148.345 116.106L150.378 115.356" stroke="#2E353A" stroke-width="0.567964" stroke-linecap="round" stroke-linejoin="round"/>
<path d="M101.905 133.258L145.438 117.18" stroke="#2E353A" stroke-width="0.567964" stroke-linecap="round" stroke-linejoin="round"/>
<path d="M96.6707 128.299L145.149 110.396" stroke="#2E353A" stroke-width="0.567964" stroke-linecap="round" stroke-linejoin="round"/>
<path d="M91.4358 123.345L139.914 105.442" stroke="#2E353A" stroke-width="0.567964" stroke-linecap="round" stroke-linejoin="round"/>
<path d="M86.2058 118.386L134.679 100.483" stroke="#2E353A" stroke-width="0.567964" stroke-linecap="round" stroke-linejoin="round"/>
<path d="M80.9717 113.427L129.445 95.5242" stroke="#2E353A" stroke-width="0.567964" stroke-linecap="round" stroke-linejoin="round"/>
<path d="M122.496 91.2014L124.215 90.5649" stroke="#2E353A" stroke-width="0.567964" stroke-linecap="round" stroke-linejoin="round"/>
<path d="M75.7373 108.468L121.005 91.7528" stroke="#2E353A" stroke-width="0.567964" stroke-linecap="round" stroke-linejoin="round"/>
<path d="M84.9756 98.1654L118.981 85.6112" stroke="#2E353A" stroke-width="0.567964" stroke-linecap="round" stroke-linejoin="round"/>
<path d="M70.5076 103.514L79.8698 100.056" stroke="#2E353A" stroke-width="0.567964" stroke-linecap="round" stroke-linejoin="round"/>
<g style="mix-blend-mode:multiply">
<path d="M87.3228 116.334C92.2295 116.975 91.7972 108.577 90.5527 105.761C89.6448 106.801 88.9682 108.023 88.5678 109.344C88.1674 110.666 88.0523 112.058 88.23 113.427C88.2817 114.067 88.5048 114.68 88.876 115.204C89.064 115.463 89.3244 115.66 89.6244 115.772C89.9244 115.883 90.2507 115.904 90.5622 115.831C91.0089 115.641 91.3868 115.32 91.6452 114.909C92.5477 113.712 93.1462 112.23 94.0962 111.133C95.412 112.021 100.086 113.541 99.4114 110.273C99.0409 108.468 99.9387 108.672 100.903 109.556C101.302 109.917 101.929 109.722 102.423 109.504L107.173 107.414C107.777 107.105 108.432 106.908 109.106 106.829C111.386 106.715 112.878 108.834 115.115 107.338C116.065 106.711 116.283 105.01 117.49 104.364C118.35 103.889 119.361 103.861 120.34 103.728C123.703 103.281 125.422 101.505 128.529 99.8992" stroke="#100027" stroke-width="1.13593" stroke-linecap="round" stroke-linejoin="round"/>
</g>
<g style="mix-blend-mode:multiply">
<path d="M91.1321 121.582C92.9703 121.896 94.5426 120.219 96.167 119.682C98.2428 118.989 99.1453 118.143 101.14 117.284C103.776 116.153 106.873 115.631 106.322 111.646C105.947 113.071 105.904 114.638 105.615 116.13C107.752 117.189 108.327 115.37 108.545 113.755C109.263 113.736 109.972 113.593 110.64 113.332C110.64 113.631 110.735 113.968 110.73 114.253C111.756 114.667 112.155 114.386 112.369 113.479C113.504 113.265 113.908 112.201 114.868 111.94C115.11 114.605 115.789 116.937 115.632 119.663C113.813 120.138 113.528 116.999 113.989 115.697C114.464 114.32 115.832 113.584 116.335 112.144C116.44 112.32 116.359 112.524 116.416 112.714C118.706 111.346 121.641 111.717 123.912 110.116C124.624 109.613 125.132 108.606 125.888 108.254C127.531 107.494 128.02 108.387 129.246 106.596" stroke="#100027" stroke-width="1.13593" stroke-linecap="round" stroke-linejoin="round"/>
</g>
<g style="mix-blend-mode:multiply">
<path d="M107.681 137.234C110.982 136.284 112.431 128.081 111.481 125.069C110.369 121.426 108.84 125.421 108.484 127.378C108.199 128.945 107.743 133.078 109.206 134.27C112.45 136.901 114.431 131.491 114.83 129.045C114.972 130.574 114.051 132.46 114.426 134.108C117.053 134.417 118.354 132.232 118.188 129.976C118.514 130.288 118.735 130.694 118.82 131.137C118.905 131.581 118.85 132.04 118.663 132.451C121.171 132.275 120.758 128.043 121.038 126.337C120.895 127.53 121.005 128.926 121.807 129.89C122.477 130.688 123.755 131.04 124.596 130.422C125.436 129.805 125.27 128.18 124.249 127.967V138.25C124.281 138.548 124.221 138.848 124.078 139.11C123.741 139.585 122.914 139.485 122.529 139.029C122.19 138.532 122.031 137.934 122.078 137.334C122.031 133.966 123.071 129.354 125.679 127.055C125.812 127.382 125.857 127.74 125.807 128.09C126.056 127.993 126.282 127.843 126.468 127.65C126.654 127.457 126.796 127.227 126.885 126.974C127.056 127.729 127.503 128.679 128.267 128.546C128.521 128.48 128.753 128.349 128.942 128.166C130.196 127.131 131.554 126.447 132.395 124.974C132.514 125.345 132.637 125.715 132.761 126.09C132.96 125.373 133.644 124.903 134.314 124.58C135.336 124.1 136.44 123.821 137.568 123.758C138.518 123.711 139.553 123.81 140.418 123.402C140.801 123.197 141.167 122.964 141.515 122.704C142.499 122.055 143.639 121.681 144.816 121.621" stroke="#100027" stroke-width="1.13593" stroke-linecap="round" stroke-linejoin="round"/>
</g>
<path d="M68.5455 47.0266C68.5455 47.0266 76.1217 37.4792 78.6867 34.0639C81.2517 30.6487 83.109 28.022 83.109 28.022C83.109 28.022 84.4769 29.1002 84.059 30.3257C83.641 31.5512 74.6303 43.8584 72.6258 46.9839C70.6213 50.1093 70.9015 54.0661 71.0488 55.4293C71.196 56.7926 67.2203 52.3371 68.5455 47.0266Z" fill="white" stroke="#2E353A" stroke-width="1.27267" stroke-linecap="round" stroke-linejoin="round"/>
<path d="M83.1094 28.0224C83.1094 28.0224 87.8261 21.4627 91.3268 16.0002C94.8275 10.5378 99.9385 2.33457 101.154 1.24207C102.37 0.149581 102.665 2.99957 102.271 4.90905C101.876 6.81854 97.6918 12.148 94.8655 16.518C92.0393 20.888 90.2913 24.0324 87.8593 26.9014C85.4273 29.7704 85.5698 29.9082 84.0593 30.3262C82.5489 30.7442 82.8434 29.2479 83.1094 28.0224Z" fill="#2E353A" stroke="#2E353A" stroke-width="1.27267" stroke-linecap="round" stroke-linejoin="round"/>
<path d="M66.9166 47.9861C67.4391 44.4473 68.6219 37.9114 71.3246 35.8546C74.0273 33.7979 82.2068 35.3796 82.886 35.5031C83.5653 35.6266 94.3287 38.0111 97.611 40.0299C100.893 42.0486 103.097 47.8816 103.938 51.2588C104.779 54.636 106.584 60.355 106.854 60.7587C106.854 60.7587 109.586 61.9605 111.082 61.818C112.578 61.6755 114.568 54.7215 118.758 50.6128C122.947 46.5041 125.123 45.9436 129.749 46.3378C134.376 46.7321 151.951 51.4963 153.732 53.249C155.513 55.0018 156.625 58.949 156.24 61.799C155.855 64.649 156.416 67.784 156.416 68.3255C156.416 68.867 158.064 70.6292 157.665 72.1254C157.266 73.6217 157.019 76.8754 155.798 77.3077C154.577 77.7399 145.595 77.5119 138.926 76.6047C132.257 75.6974 122.981 71.6742 116.839 68.8622C110.697 66.0502 107.7 64.839 103.211 64.8722C98.7225 64.9055 90.0205 65.0955 81.9835 63.243C73.9466 61.3905 68.4841 58.018 66.9736 56.5408C65.4632 55.0635 66.3989 51.5296 66.9166 47.9861ZM115.043 64.668C117.243 67.9217 126.106 71.1279 130.875 72.4532C135.644 73.7784 147.082 76.1534 150.065 74.5052C153.048 72.8569 154.615 63.0482 154.34 59.6473C154.064 56.2463 152.673 54.3558 152.673 54.3558C146.797 50.7221 128.41 46.8983 124.61 48.4231C120.81 49.9478 117.176 54.864 115.841 58.816C114.507 62.768 115.043 64.668 115.043 64.668ZM76.6493 59.0773C82.5203 62.5732 91.778 63.5992 95.4497 63.7132C99.1214 63.8272 102.646 61.8987 102.755 57.6808C102.864 53.4628 100.641 46.4043 99.8102 44.3808C98.9789 42.3574 96.2525 41.1414 96.2525 41.1414C92.5712 39.3981 77.3096 35.5554 74.7256 35.9829C72.1416 36.4104 69.8806 40.3339 69.3534 46.0671C68.8261 51.8003 70.7784 55.5813 76.6493 59.0773Z" fill="#2E353A" stroke="#2E353A" stroke-width="1.27267" stroke-linecap="round" stroke-linejoin="round"/>
<path d="M156.007 68.2073C156.007 68.2073 157.518 70.511 158.596 68.8723C159.674 67.2336 173.582 51.6346 173.582 51.6346C173.582 51.6346 174.124 51.4921 173.995 52.5846C173.867 53.6771 159.308 73.2233 158.767 74.178C158.225 75.1328 155.917 75.4225 155.375 75.0188C154.834 74.615 156.007 68.2073 156.007 68.2073Z" fill="white" stroke="#2E353A" stroke-width="1.27267" stroke-linecap="round" stroke-linejoin="round"/>
<path d="M172.632 52.1808C173.426 50.7659 174.143 49.3087 174.779 47.8156C176.251 44.5428 177.154 38.1446 177.391 31.4757C177.629 24.8067 177.866 20.8642 179.096 22.0802C180.327 23.2962 179.272 29.8369 179.044 35.0001C178.816 40.1634 177.211 45.3503 176.821 48.0768C176.527 50.1336 174.95 53.392 173.862 53.3968C172.774 53.4015 172.912 53.1308 172.632 52.1808Z" fill="#2E353A" stroke="#2E353A" stroke-width="1.27267" stroke-linecap="round" stroke-linejoin="round"/>
<path d="M82.8857 137.443L88.8659 144.211L79.974 142.207L16.7043 103.499L19.6208 98.7351L82.8857 137.443Z" fill="white" stroke="#2E353A" stroke-width="1.4364" stroke-linecap="round" stroke-linejoin="round"/>
<g style="mix-blend-mode:multiply" opacity="0.5">
<path d="M82.8857 137.443L88.8659 144.211L79.974 142.207L16.7043 103.499L19.6208 98.7351L82.8857 137.443Z" fill="#100027"/>
<path d="M82.8857 137.443L88.8659 144.211L79.974 142.207L16.7043 103.499L19.6208 98.7351L82.8857 137.443Z" stroke="#2E353A" stroke-width="1.4364" stroke-linecap="round" stroke-linejoin="round"/>
</g>
<path d="M18.9582 99.8199L17.3691 102.417L80.6372 141.127L82.2262 138.53L18.9582 99.8199Z" stroke="#2E353A" stroke-width="0.718198" stroke-linecap="round" stroke-linejoin="round"/>
<path d="M82.8998 137.457L79.988 142.212L88.8657 144.211L82.8998 137.457Z" fill="white" stroke="#2E353A" stroke-width="1.4364" stroke-linecap="round" stroke-linejoin="round"/>
<path d="M84.4248 143.209L88.866 144.211L85.883 140.834L84.4248 143.209Z" fill="#100027" stroke="#2E353A" stroke-width="1.4364" stroke-linecap="round" stroke-linejoin="round"/>
<path d="M11.0803 96.7832C10.8884 97.0956 10.76 97.4428 10.7025 97.8049C10.645 98.167 10.6594 98.5369 10.745 98.8933C10.8306 99.2498 10.9857 99.5859 11.2013 99.8824C11.417 100.179 11.689 100.43 12.0018 100.621L16.7042 103.5L19.6207 98.7497L14.9182 95.8712C14.2881 95.4842 13.5302 95.3628 12.8107 95.5338C12.0912 95.7048 11.4689 96.1541 11.0803 96.7832Z" fill="white" stroke="#2E353A" stroke-width="1.4364" stroke-linecap="round" stroke-linejoin="round"/>
<path d="M11.0803 96.7832C10.8884 97.0956 10.76 97.4428 10.7025 97.8049C10.645 98.167 10.6594 98.5369 10.745 98.8933C10.8306 99.2498 10.9857 99.5859 11.2013 99.8824C11.417 100.179 11.689 100.43 12.0018 100.621L14.2532 101.999L17.1697 97.2487L14.9182 95.8712C14.2881 95.4842 13.5302 95.3628 12.8107 95.5338C12.0912 95.7048 11.4689 96.1541 11.0803 96.7832Z" fill="#2E353A" stroke="#2E353A" stroke-width="1.4364" stroke-linecap="round" stroke-linejoin="round"/>
<path d="M138.754 74.1021L137.087 72.9288C136.829 72.7479 136.534 72.6274 136.223 72.5764C135.912 72.5255 135.594 72.5452 135.292 72.6343C133.529 73.1473 130.204 74.4536 129.255 75.4843C128.02 76.7573 127.63 79.061 128.224 80.144C128.817 81.227 131.254 82.6093 131.254 82.6093L141.462 76.3963L138.754 74.1021Z" fill="white" stroke="#2E353A" stroke-width="0.9473" stroke-miterlimit="10"/>
<g style="mix-blend-mode:multiply" opacity="0.5">
<path d="M138.754 74.1021L137.087 72.9288C136.829 72.7479 136.534 72.6274 136.223 72.5764C135.912 72.5255 135.594 72.5452 135.292 72.6343C133.529 73.1473 130.204 74.4536 129.255 75.4843C128.02 76.7573 127.63 79.061 128.224 80.144C128.817 81.227 131.254 82.6093 131.254 82.6093L141.462 76.3963L138.754 74.1021Z" fill="#100027"/>
<path d="M138.754 74.1021L137.087 72.9288C136.829 72.7479 136.534 72.6274 136.223 72.5764C135.912 72.5255 135.594 72.5452 135.292 72.6343C133.529 73.1473 130.204 74.4536 129.255 75.4843C128.02 76.7573 127.63 79.061 128.224 80.144C128.817 81.227 131.254 82.6093 131.254 82.6093L141.462 76.3963L138.754 74.1021Z" stroke="#2E353A" stroke-width="0.9473" stroke-miterlimit="10"/>
</g>
<path d="M139.795 73.6219L131.72 77.3126C131.72 77.3126 128.989 78.8564 129.854 83.5826L177.14 118.4C177.14 118.4 178.783 119.597 181.752 118.585C184.721 117.573 187.761 114.073 188.402 111.113C189.043 108.154 186.977 107.223 186.592 106.895C186.207 106.568 141.391 73.9734 141.391 73.9734C140.918 73.6711 140.352 73.5466 139.795 73.6219Z" fill="white" stroke="#2E353A" stroke-width="0.9473" stroke-miterlimit="10"/>
<g style="mix-blend-mode:multiply" opacity="0.5">
<path d="M139.795 73.6219L131.72 77.3126C131.72 77.3126 128.989 78.8564 129.854 83.5826L177.14 118.4C177.14 118.4 178.783 119.597 181.752 118.585C184.721 117.573 187.761 114.073 188.402 111.113C189.043 108.154 186.977 107.223 186.592 106.895C186.207 106.568 141.391 73.9734 141.391 73.9734C140.918 73.6711 140.352 73.5466 139.795 73.6219Z" fill="#100027"/>
<path d="M139.795 73.6219L131.72 77.3126C131.72 77.3126 128.989 78.8564 129.854 83.5826L177.14 118.4C177.14 118.4 178.783 119.597 181.752 118.585C184.721 117.573 187.761 114.073 188.402 111.113C189.043 108.154 186.977 107.223 186.592 106.895C186.207 106.568 141.391 73.9734 141.391 73.9734C140.918 73.6711 140.352 73.5466 139.795 73.6219Z" stroke="#2E353A" stroke-width="0.9473" stroke-miterlimit="10"/>
</g>
<path d="M185.219 116.13C182.241 118.908 178.636 119.887 177.144 118.31C175.653 116.733 176.883 113.194 179.861 110.411C182.84 107.627 186.445 106.653 187.936 108.23C189.428 109.807 188.193 113.346 185.219 116.13Z" fill="white" stroke="#2E353A" stroke-width="0.9473" stroke-miterlimit="10"/>
<g style="mix-blend-mode:multiply">
<path d="M185.219 116.13C182.241 118.908 178.636 119.887 177.144 118.31C175.653 116.733 176.883 113.194 179.861 110.411C182.84 107.627 186.445 106.653 187.936 108.23C189.428 109.807 188.193 113.346 185.219 116.13Z" fill="#100027"/>
<path d="M185.219 116.13C182.241 118.908 178.636 119.887 177.144 118.31C175.653 116.733 176.883 113.194 179.861 110.411C182.84 107.627 186.445 106.653 187.936 108.23C189.428 109.807 188.193 113.346 185.219 116.13Z" stroke="#2E353A" stroke-width="0.9473" stroke-miterlimit="10"/>
</g>
<path d="M141.387 73.974C140.914 73.6728 140.351 73.5483 139.795 73.6225L131.72 77.3132C131.72 77.3132 128.989 78.8569 129.854 83.5832L162.552 107.661C162.32 106.549 162.362 104.925 163.612 102.996C164.771 101.196 169.977 98.2938 172.789 96.8213C159.479 87.1362 141.387 73.974 141.387 73.974Z" fill="#2E353A" stroke="#2E353A" stroke-width="1.27267" stroke-linecap="round" stroke-linejoin="round"/>
<path d="M178.906 110.325L161.635 97.809C161.377 97.6219 161.17 97.3728 161.033 97.0846C160.896 96.7964 160.834 96.4784 160.853 96.1599C160.871 95.8414 160.969 95.5327 161.139 95.2622C161.308 94.9917 161.542 94.7682 161.821 94.6123L164.495 93.154C164.809 92.9841 165.164 92.906 165.52 92.9286C165.877 92.9513 166.219 93.0739 166.509 93.2823L184.768 106.506" fill="white"/>
<path d="M178.906 110.325L161.635 97.809C161.377 97.6219 161.17 97.3728 161.033 97.0846C160.896 96.7964 160.834 96.4784 160.853 96.1599C160.871 95.8414 160.969 95.5327 161.139 95.2622C161.308 94.9917 161.542 94.7682 161.821 94.6123L164.495 93.154C164.809 92.9841 165.164 92.906 165.52 92.9286C165.877 92.9513 166.219 93.0739 166.509 93.2823L184.768 106.506" stroke="#2E353A" stroke-width="0.9473" stroke-miterlimit="10"/>
<g style="mix-blend-mode:multiply" opacity="0.5">
<path d="M178.906 110.325L161.635 97.809C161.377 97.6219 161.17 97.3728 161.033 97.0846C160.896 96.7964 160.834 96.4784 160.853 96.1599C160.871 95.8414 160.969 95.5327 161.139 95.2622C161.308 94.9917 161.542 94.7682 161.821 94.6123L164.495 93.154C164.809 92.9841 165.164 92.906 165.52 92.9286C165.877 92.9513 166.219 93.0739 166.509 93.2823L184.768 106.506" fill="#100027"/>
<path d="M178.906 110.325L161.635 97.809C161.377 97.6219 161.17 97.3728 161.033 97.0846C160.896 96.7964 160.834 96.4784 160.853 96.1599C160.871 95.8414 160.969 95.5327 161.139 95.2622C161.308 94.9917 161.542 94.7682 161.821 94.6123L164.495 93.154C164.809 92.9841 165.164 92.906 165.52 92.9286C165.877 92.9513 166.219 93.0739 166.509 93.2823L184.768 106.506" stroke="#2E353A" stroke-width="0.9473" stroke-miterlimit="10"/>
</g>
</svg>

